<svg xmlns="http://www.w3.org/2000/svg" viewBox="0 0 1800 500">
  <rect width="1800" height="500" rx="20" fill="#DC2626"/>
  <!-- V -->
  <path d="M180 130 L270 370 L310 370 L400 130 L355 130 L290 320 L225 130 Z" fill="white"/>
  <!-- e -->
  <path d="M420 210 C420 170 460 150 500 150 C540 150 575 170 578 210 L420 210 Z M420 240 L578 240 C575 290 540 310 500 310 C450 310 420 280 420 260 Z" fill="white"/>
  <!-- m -->
  <path d="M600 155 L635 155 L635 180 C645 162 665 150 690 150 C715 150 730 162 738 180 C750 162 770 150 795 150 C825 150 840 170 840 200 L840 305 L805 305 L805 205 C805 188 798 178 782 178 C766 178 752 192 752 210 L752 305 L717 305 L717 205 C717 188 710 178 694 178 C678 178 665 192 665 210 L665 305 L635 305 L635 155 Z" fill="white"/>
  <!-- b -->
  <path d="M870 110 L905 110 L905 170 C918 155 938 150 955 150 C1000 150 1030 185 1030 230 C1030 275 1000 310 955 310 C938 310 918 305 905 290 L905 305 L870 305 Z M945 178 C920 178 905 200 905 230 C905 260 920 282 945 282 C970 282 985 260 985 230 C985 200 970 178 945 178 Z" fill="white"/>
  <!-- a -->
  <path d="M1060 230 C1060 185 1095 150 1140 150 C1175 150 1200 170 1200 200 C1200 235 1170 248 1130 255 L1095 260 C1085 262 1080 268 1080 278 C1080 290 1090 298 1105 298 C1130 298 1155 280 1165 265 L1165 305 L1200 305 L1200 230 C1200 205 1195 178 1140 178 C1110 178 1095 195 1095 210 L1060 210 Z" fill="white"/>
  <!-- d -->
  <path d="M1230 110 L1265 110 L1265 170 C1278 155 1298 150 1315 150 C1360 150 1390 185 1390 230 C1390 275 1360 310 1315 310 C1298 310 1278 305 1265 290 L1265 305 L1230 305 Z M1305 178 C1280 178 1265 200 1265 230 C1265 260 1280 282 1305 282 C1330 282 1345 260 1345 230 C1345 200 1330 178 1305 178 Z" fill="white"/>
  <!-- y -->
  <path d="M1420 155 L1460 155 L1510 270 L1560 155 L1600 155 L1520 340 C1505 375 1485 395 1450 395 L1430 395 L1430 368 L1448 368 C1465 368 1475 358 1482 340 L1420 155 Z" fill="white"/>
</svg>
